<svg width="7" height="12" viewBox="0 0 7 12"  xmlns="http://www.w3.org/2000/svg">
<path d="M1.47527 11.8334C1.59977 11.8338 1.72277 11.8063 1.83526 11.753C1.94774 11.6996 2.04684 11.6217 2.12527 11.525L6.15027 6.52503C6.27284 6.37592 6.33984 6.18888 6.33984 5.99586C6.33984 5.80284 6.27284 5.61581 6.15027 5.46669L1.9836 0.466693C1.84215 0.296513 1.6389 0.189492 1.41854 0.169176C1.19819 0.148859 0.978785 0.216911 0.808604 0.35836C0.638423 0.499809 0.531404 0.703068 0.511087 0.923423C0.49077 1.14378 0.558822 1.36318 0.700271 1.53336L4.42527 6.00003L0.825271 10.4667C0.723369 10.589 0.658638 10.738 0.638738 10.8959C0.618838 11.0539 0.644602 11.2142 0.712982 11.358C0.781362 11.5018 0.889495 11.623 1.02459 11.7072C1.15968 11.7914 1.31608 11.8352 1.47527 11.8334Z"/>
</svg>
